<svg width="125" height="32" viewBox="0 0 125 32" fill="none" xmlns="http://www.w3.org/2000/svg">
<path d="M13.6143 3.4707L12.5947 4.25293C12.0322 3.52051 11.3555 2.9668 10.5645 2.5918C9.7793 2.21094 8.91504 2.02051 7.97168 2.02051C6.94043 2.02051 5.98535 2.26953 5.10645 2.76758C4.22754 3.25977 3.54492 3.9248 3.05859 4.7627C2.57812 5.59473 2.33789 6.53223 2.33789 7.5752C2.33789 9.15137 2.87695 10.4668 3.95508 11.5215C5.03906 12.5762 6.4043 13.1035 8.05078 13.1035C9.86133 13.1035 11.376 12.3945 12.5947 10.9766L13.6143 11.75C12.9697 12.5703 12.1641 13.2061 11.1973 13.6572C10.2363 14.1025 9.16113 14.3252 7.97168 14.3252C5.70996 14.3252 3.92578 13.5723 2.61914 12.0664C1.52344 10.7949 0.975586 9.25977 0.975586 7.46094C0.975586 5.56836 1.6377 3.97754 2.96191 2.68848C4.29199 1.39355 5.95605 0.746094 7.9541 0.746094C9.16113 0.746094 10.251 0.986328 11.2236 1.4668C12.1963 1.94141 12.9932 2.60938 13.6143 3.4707ZM20.74 4.19141C22.2107 4.19141 23.4295 4.72461 24.3963 5.79102C25.2752 6.76367 25.7146 7.91504 25.7146 9.24512C25.7146 10.5811 25.2488 11.75 24.3172 12.752C23.3914 13.748 22.199 14.2461 20.74 14.2461C19.2752 14.2461 18.077 13.748 17.1453 12.752C16.2195 11.75 15.7566 10.5811 15.7566 9.24512C15.7566 7.9209 16.1961 6.77246 17.075 5.7998C18.0418 4.72754 19.2635 4.19141 20.74 4.19141ZM20.74 5.39551C19.7205 5.39551 18.8445 5.77344 18.1121 6.5293C17.3797 7.28516 17.0135 8.19922 17.0135 9.27148C17.0135 9.96289 17.1805 10.6074 17.5145 11.2051C17.8484 11.8027 18.2996 12.2656 18.868 12.5938C19.4363 12.916 20.0604 13.0771 20.74 13.0771C21.4197 13.0771 22.0437 12.916 22.6121 12.5938C23.1805 12.2656 23.6316 11.8027 23.9656 11.2051C24.2996 10.6074 24.4666 9.96289 24.4666 9.27148C24.4666 8.19922 24.0975 7.28516 23.3592 6.5293C22.6268 5.77344 21.7537 5.39551 20.74 5.39551ZM28.2086 4.4375H29.4391V6.15137C29.9312 5.49512 30.4762 5.00586 31.0738 4.68359C31.6715 4.35547 32.3219 4.19141 33.025 4.19141C33.7398 4.19141 34.3727 4.37305 34.9234 4.73633C35.4801 5.09961 35.8902 5.58887 36.1539 6.2041C36.4176 6.81934 36.5494 7.77734 36.5494 9.07812V14H35.3277V9.43848C35.3277 8.33691 35.2809 7.60156 35.1871 7.23242C35.0406 6.59961 34.7652 6.125 34.3609 5.80859C33.9566 5.48633 33.4293 5.3252 32.7789 5.3252C32.0348 5.3252 31.3668 5.57129 30.775 6.06348C30.1891 6.55566 29.8023 7.16504 29.6148 7.8916C29.4977 8.36621 29.4391 9.2334 29.4391 10.4932V14H28.2086V4.4375ZM40.4672 0.886719H41.7064V4.4375H43.6576V5.49219H41.7064V14H40.4672V5.49219H38.7885V4.4375H40.4672V0.886719ZM55.2219 4.4375V14H54.009V12.3564C53.4934 12.9834 52.9133 13.4551 52.2687 13.7715C51.6301 14.0879 50.9299 14.2461 50.1682 14.2461C48.8146 14.2461 47.6574 13.7568 46.6965 12.7783C45.7414 11.7939 45.2639 10.5986 45.2639 9.19238C45.2639 7.81543 45.7473 6.6377 46.7141 5.65918C47.6809 4.68066 48.8439 4.19141 50.2033 4.19141C50.9885 4.19141 51.6975 4.3584 52.3303 4.69238C52.9689 5.02637 53.5285 5.52734 54.009 6.19531V4.4375H55.2219ZM50.3 5.37793C49.6145 5.37793 48.9816 5.54785 48.4016 5.8877C47.8215 6.22168 47.3586 6.69336 47.0129 7.30273C46.673 7.91211 46.5031 8.55664 46.5031 9.23633C46.5031 9.91016 46.676 10.5547 47.0217 11.1699C47.3674 11.7852 47.8303 12.2656 48.4104 12.6113C48.9963 12.9512 49.6232 13.1211 50.2912 13.1211C50.965 13.1211 51.6037 12.9512 52.2072 12.6113C52.8107 12.2715 53.2736 11.8115 53.5959 11.2314C53.924 10.6514 54.0881 9.99805 54.0881 9.27148C54.0881 8.16406 53.7219 7.23828 52.9895 6.49414C52.2629 5.75 51.3664 5.37793 50.3 5.37793ZM67.4805 6.42383L66.5049 7.03027C65.6611 5.91113 64.5098 5.35156 63.0508 5.35156C61.8848 5.35156 60.915 5.72656 60.1416 6.47656C59.374 7.22656 58.9902 8.1377 58.9902 9.20996C58.9902 9.90723 59.166 10.5635 59.5176 11.1787C59.875 11.7939 60.3613 12.2715 60.9766 12.6113C61.5977 12.9512 62.292 13.1211 63.0596 13.1211C64.4658 13.1211 65.6143 12.5615 66.5049 11.4424L67.4805 12.084C67.0234 12.7695 66.4082 13.3027 65.6348 13.6836C64.8672 14.0586 63.9912 14.2461 63.0068 14.2461C61.4951 14.2461 60.2412 13.7656 59.2451 12.8047C58.249 11.8438 57.751 10.6748 57.751 9.29785C57.751 8.37207 57.9824 7.51367 58.4453 6.72266C58.9141 5.92578 59.5557 5.30469 60.3701 4.85938C61.1846 4.41406 62.0957 4.19141 63.1035 4.19141C63.7363 4.19141 64.3457 4.28809 64.9316 4.48145C65.5234 4.6748 66.0244 4.92676 66.4346 5.2373C66.8447 5.54785 67.1934 5.94336 67.4805 6.42383ZM71.1258 0.886719H72.365V4.4375H74.3162V5.49219H72.365V14H71.1258V5.49219H69.4471V4.4375H71.1258V0.886719ZM81.976 0.5C82.2572 0.5 82.4975 0.599609 82.6967 0.798828C82.8959 0.998047 82.9955 1.23828 82.9955 1.51953C82.9955 1.79492 82.8959 2.03223 82.6967 2.23145C82.4975 2.43066 82.2572 2.53027 81.976 2.53027C81.7006 2.53027 81.4633 2.43066 81.2641 2.23145C81.0648 2.03223 80.9652 1.79492 80.9652 1.51953C80.9652 1.23828 81.0648 0.998047 81.2641 0.798828C81.4633 0.599609 81.7006 0.5 81.976 0.5ZM81.3607 4.4375H82.6V14H81.3607V4.4375ZM85.3488 4.4375H86.5793V6.15137C87.0715 5.49512 87.6164 5.00586 88.2141 4.68359C88.8117 4.35547 89.4621 4.19141 90.1652 4.19141C90.8801 4.19141 91.5129 4.37305 92.0637 4.73633C92.6203 5.09961 93.0305 5.58887 93.2941 6.2041C93.5578 6.81934 93.6897 7.77734 93.6897 9.07812V14H92.468V9.43848C92.468 8.33691 92.4211 7.60156 92.3273 7.23242C92.1809 6.59961 91.9055 6.125 91.5012 5.80859C91.0969 5.48633 90.5695 5.3252 89.9191 5.3252C89.175 5.3252 88.507 5.57129 87.9152 6.06348C87.3293 6.55566 86.9426 7.16504 86.7551 7.8916C86.6379 8.36621 86.5793 9.2334 86.5793 10.4932V14H85.3488V4.4375ZM100.473 0.746094V1.9502C100.021 1.75684 99.6348 1.66016 99.3125 1.66016C99.0723 1.66016 98.873 1.70996 98.7148 1.80957C98.5566 1.90332 98.457 2.01465 98.416 2.14355C98.375 2.2666 98.3545 2.60059 98.3545 3.14551V4.4375H100.35V5.49219H98.3457V14H97.1152V5.49219H95.8584V4.4375H97.1152V2.94336C97.1152 2.25781 97.1768 1.76855 97.2998 1.47559C97.4287 1.18262 97.6426 0.948242 97.9414 0.772461C98.2461 0.59082 98.6123 0.5 99.04 0.5C99.4385 0.5 99.916 0.582031 100.473 0.746094ZM106.922 4.19141C108.392 4.19141 109.611 4.72461 110.578 5.79102C111.457 6.76367 111.896 7.91504 111.896 9.24512C111.896 10.5811 111.43 11.75 110.499 12.752C109.573 13.748 108.381 14.2461 106.922 14.2461C105.457 14.2461 104.259 13.748 103.327 12.752C102.401 11.75 101.938 10.5811 101.938 9.24512C101.938 7.9209 102.378 6.77246 103.257 5.7998C104.223 4.72754 105.445 4.19141 106.922 4.19141ZM106.922 5.39551C105.902 5.39551 105.026 5.77344 104.294 6.5293C103.561 7.28516 103.195 8.19922 103.195 9.27148C103.195 9.96289 103.362 10.6074 103.696 11.2051C104.03 11.8027 104.481 12.2656 105.05 12.5938C105.618 12.916 106.242 13.0771 106.922 13.0771C107.601 13.0771 108.225 12.916 108.794 12.5938C109.362 12.2656 109.813 11.8027 110.147 11.2051C110.481 10.6074 110.648 9.96289 110.648 9.27148C110.648 8.19922 110.279 7.28516 109.541 6.5293C108.808 5.77344 107.935 5.39551 106.922 5.39551Z" fill="#00CAD7"/>
<path d="M1.50146 19.75C1.73584 19.75 1.93604 19.833 2.10205 19.999C2.26807 20.165 2.35107 20.3652 2.35107 20.5996C2.35107 20.8291 2.26807 21.0269 2.10205 21.1929C1.93604 21.3589 1.73584 21.4419 1.50146 21.4419C1.27197 21.4419 1.07422 21.3589 0.908203 21.1929C0.742188 21.0269 0.65918 20.8291 0.65918 20.5996C0.65918 20.3652 0.742188 20.165 0.908203 19.999C1.07422 19.833 1.27197 19.75 1.50146 19.75ZM0.98877 23.0312H2.02148V31H0.98877V23.0312ZM4.34551 23.0312H5.3709V24.4595C5.78105 23.9126 6.23516 23.5049 6.7332 23.2363C7.23125 22.9629 7.77324 22.8262 8.35918 22.8262C8.95488 22.8262 9.48223 22.9775 9.94121 23.2803C10.4051 23.583 10.7469 23.9907 10.9666 24.5034C11.1863 25.0161 11.2962 25.8145 11.2962 26.8984V31H10.2781V27.1987C10.2781 26.2808 10.2391 25.668 10.1609 25.3604C10.0389 24.833 9.80938 24.4375 9.47246 24.1738C9.13555 23.9053 8.69609 23.771 8.1541 23.771C7.53398 23.771 6.97734 23.9761 6.48418 24.3862C5.9959 24.7964 5.67363 25.3042 5.51738 25.9097C5.41973 26.3052 5.3709 27.0278 5.3709 28.0776V31H4.34551V23.0312ZM16.982 19.9551V20.9585C16.6061 20.7974 16.2838 20.7168 16.0152 20.7168C15.815 20.7168 15.649 20.7583 15.5172 20.8413C15.3854 20.9194 15.3023 21.0122 15.2682 21.1196C15.234 21.2222 15.2169 21.5005 15.2169 21.9546V23.0312H16.8795V23.9102H15.2096V31H14.1842V23.9102H13.1368V23.0312H14.1842V21.7861C14.1842 21.2148 14.2354 20.8071 14.338 20.563C14.4454 20.3188 14.6236 20.1235 14.8727 19.9771C15.1266 19.8257 15.4317 19.75 15.7882 19.75C16.1202 19.75 16.5182 19.8184 16.982 19.9551ZM22.3896 22.8262C23.6151 22.8262 24.6308 23.2705 25.4364 24.1592C26.1688 24.9697 26.5351 25.9292 26.5351 27.0376C26.5351 28.1509 26.1469 29.125 25.3705 29.96C24.599 30.79 23.6054 31.2051 22.3896 31.2051C21.1688 31.2051 20.1703 30.79 19.3939 29.96C18.6225 29.125 18.2367 28.1509 18.2367 27.0376C18.2367 25.9341 18.6029 24.9771 19.3354 24.1665C20.141 23.2729 21.1591 22.8262 22.3896 22.8262ZM22.3896 23.8296C21.5399 23.8296 20.81 24.1445 20.1996 24.7744C19.5893 25.4043 19.2841 26.166 19.2841 27.0596C19.2841 27.6357 19.4232 28.1729 19.7016 28.6709C19.9799 29.1689 20.3559 29.5547 20.8295 29.8281C21.3031 30.0967 21.8231 30.231 22.3896 30.231C22.956 30.231 23.476 30.0967 23.9496 29.8281C24.4232 29.5547 24.7992 29.1689 25.0775 28.6709C25.3559 28.1729 25.495 27.6357 25.495 27.0596C25.495 26.166 25.1874 25.4043 24.5722 24.7744C23.9618 24.1445 23.2343 23.8296 22.3896 23.8296ZM38.0803 28.7954H38.8566C38.2023 29.6108 37.5969 30.1821 37.0402 30.5093C36.2492 30.9683 35.3483 31.1978 34.3376 31.1978C33.2683 31.1978 32.2819 30.9463 31.3786 30.4434C30.4753 29.9355 29.7697 29.2446 29.2619 28.3706C28.759 27.4966 28.5075 26.542 28.5075 25.5068C28.5075 24.457 28.7614 23.4805 29.2692 22.5771C29.7819 21.6738 30.4777 20.9731 31.3566 20.4751C32.2355 19.9722 33.1975 19.7207 34.2424 19.7207C35.717 19.7207 36.9621 20.1943 37.9777 21.1416C38.9934 22.084 39.5012 23.1826 39.5012 24.4375C39.5012 25.3506 39.2888 26.1392 38.864 26.8032C38.444 27.4624 37.8728 27.9751 37.1501 28.3413C36.5983 28.6245 36.1271 28.7661 35.7365 28.7661C35.4533 28.7661 35.2287 28.6904 35.0627 28.5391C34.9357 28.4268 34.8698 28.2314 34.8649 27.9531C34.6989 28.1631 34.4694 28.3389 34.1765 28.4805C33.8884 28.6221 33.5881 28.6929 33.2756 28.6929C32.5725 28.6929 31.9914 28.4512 31.5324 27.9678C31.0734 27.4795 30.8439 26.835 30.8439 26.0342C30.8439 25.1699 31.1223 24.3813 31.6789 23.6685C32.2355 22.9556 33.0021 22.5991 33.9787 22.5991C34.4084 22.5991 34.7673 22.6797 35.0554 22.8408C35.3483 23.002 35.6242 23.2827 35.883 23.6831L36.0734 22.6724H36.8645L36.0148 27.4624C35.9904 27.6187 35.9782 27.7188 35.9782 27.7627C35.9782 27.875 36.0124 27.9629 36.0808 28.0264C36.1491 28.0898 36.237 28.1216 36.3444 28.1216C36.6325 28.1216 37.0061 27.9556 37.465 27.6235C37.9289 27.2866 38.2878 26.8569 38.5417 26.3345C38.8005 25.8071 38.9299 25.2236 38.9299 24.584C38.9299 23.3438 38.4489 22.3159 37.487 21.5005C36.5886 20.7437 35.4948 20.3652 34.2058 20.3652C33.2487 20.3652 32.3796 20.585 31.5983 21.0244C30.822 21.459 30.2067 22.0742 29.7526 22.8701C29.3034 23.6611 29.0788 24.5181 29.0788 25.4409C29.0788 26.3735 29.3059 27.2354 29.76 28.0264C30.2141 28.8125 30.8415 29.4302 31.6423 29.8794C32.4479 30.3286 33.3342 30.5532 34.301 30.5532C35.009 30.5532 35.6511 30.4263 36.2272 30.1724C36.8034 29.9185 37.4211 29.4595 38.0803 28.7954ZM33.6418 27.8652C33.9641 27.8652 34.2668 27.7651 34.55 27.5649C34.8332 27.3599 35.0578 27.0547 35.2238 26.6494C35.4387 26.1172 35.5461 25.5825 35.5461 25.0454C35.5461 24.5522 35.4069 24.1519 35.1286 23.8442C34.8552 23.5366 34.4987 23.3828 34.0593 23.3828C33.4733 23.3828 32.9655 23.6245 32.5358 24.1079C32.111 24.5864 31.8986 25.1846 31.8986 25.9023C31.8986 26.5029 32.0598 26.9814 32.382 27.3379C32.7092 27.6895 33.1291 27.8652 33.6418 27.8652ZM49.7939 23.0312V31H48.7832V29.6304C48.3535 30.1528 47.8701 30.5459 47.333 30.8096C46.8008 31.0732 46.2173 31.2051 45.5825 31.2051C44.4546 31.2051 43.4902 30.7974 42.6895 29.9819C41.8936 29.1616 41.4956 28.1655 41.4956 26.9937C41.4956 25.8462 41.8984 24.8647 42.7041 24.0493C43.5098 23.2339 44.479 22.8262 45.6118 22.8262C46.2661 22.8262 46.8569 22.9653 47.3843 23.2437C47.9165 23.522 48.3828 23.9395 48.7832 24.4961V23.0312H49.7939ZM45.6924 23.8149C45.1211 23.8149 44.5938 23.9565 44.1104 24.2397C43.627 24.5181 43.2412 24.9111 42.9531 25.4189C42.6699 25.9268 42.5283 26.4639 42.5283 27.0303C42.5283 27.5918 42.6724 28.1289 42.9604 28.6416C43.2485 29.1543 43.6343 29.5547 44.1177 29.8428C44.606 30.126 45.1284 30.2676 45.6851 30.2676C46.2466 30.2676 46.7788 30.126 47.2817 29.8428C47.7847 29.5596 48.1704 29.1763 48.439 28.6929C48.7124 28.2095 48.8491 27.665 48.8491 27.0596C48.8491 26.1367 48.5439 25.3652 47.9336 24.7451C47.3281 24.125 46.5811 23.8149 45.6924 23.8149ZM52.1546 19.9551H53.18V31H52.1546V19.9551ZM55.3575 19.9551H56.3829V31H55.3575V19.9551ZM58.8754 20.2261H61.0214C62.2519 20.2261 63.0819 20.2798 63.5116 20.3872C64.1269 20.5386 64.6298 20.8511 65.0204 21.3247C65.411 21.7935 65.6063 22.3843 65.6063 23.0972C65.6063 23.8149 65.4159 24.4082 65.0351 24.877C64.6542 25.3408 64.1293 25.6533 63.4604 25.8145C62.9721 25.9316 62.059 25.9902 60.7211 25.9902H59.952V31H58.8754V20.2261ZM59.952 21.2734V24.9355L61.7758 24.9575C62.5131 24.9575 63.0526 24.8916 63.3944 24.7598C63.7362 24.623 64.0048 24.4058 64.2001 24.1079C64.3954 23.8052 64.4931 23.4683 64.4931 23.0972C64.4931 22.7358 64.3954 22.4062 64.2001 22.1084C64.0048 21.8057 63.746 21.5908 63.4237 21.4639C63.1063 21.3369 62.5839 21.2734 61.8563 21.2734H59.952ZM71.5632 22.8262C72.7888 22.8262 73.8044 23.2705 74.6101 24.1592C75.3425 24.9697 75.7087 25.9292 75.7087 27.0376C75.7087 28.1509 75.3205 29.125 74.5441 29.96C73.7727 30.79 72.779 31.2051 71.5632 31.2051C70.3425 31.2051 69.3439 30.79 68.5676 29.96C67.7961 29.125 67.4104 28.1509 67.4104 27.0376C67.4104 25.9341 67.7766 24.9771 68.509 24.1665C69.3147 23.2729 70.3327 22.8262 71.5632 22.8262ZM71.5632 23.8296C70.7136 23.8296 69.9836 24.1445 69.3732 24.7744C68.7629 25.4043 68.4577 26.166 68.4577 27.0596C68.4577 27.6357 68.5969 28.1729 68.8752 28.6709C69.1535 29.1689 69.5295 29.5547 70.0031 29.8281C70.4768 30.0967 70.9968 30.231 71.5632 30.231C72.1296 30.231 72.6496 30.0967 73.1232 29.8281C73.5969 29.5547 73.9729 29.1689 74.2512 28.6709C74.5295 28.1729 74.6687 27.6357 74.6687 27.0596C74.6687 26.166 74.361 25.4043 73.7458 24.7744C73.1355 24.1445 72.4079 23.8296 71.5632 23.8296ZM77.4321 23.0312H78.4795V24.1958C78.792 23.7368 79.1216 23.395 79.4683 23.1704C79.8149 22.9409 80.1763 22.8262 80.5522 22.8262C80.8354 22.8262 81.1382 22.9165 81.4604 23.0972L80.9258 23.9614C80.7109 23.8687 80.5303 23.8223 80.3838 23.8223C80.042 23.8223 79.7124 23.9639 79.395 24.2471C79.0776 24.5254 78.8359 24.96 78.6699 25.5508C78.543 26.0049 78.4795 26.9229 78.4795 28.3047V31H77.4321V23.0312ZM83.4256 20.0723H84.4583V23.0312H86.0843V23.9102H84.4583V31H83.4256V23.9102H82.0267V23.0312H83.4256V20.0723ZM88.943 29.3887C89.192 29.3887 89.4044 29.4766 89.5802 29.6523C89.756 29.8281 89.8438 30.043 89.8438 30.2969C89.8438 30.5459 89.756 30.7607 89.5802 30.9414C89.4044 31.1172 89.192 31.2051 88.943 31.2051C88.6939 31.2051 88.4815 31.1172 88.3058 30.9414C88.13 30.7607 88.0421 30.5459 88.0421 30.2969C88.0421 30.043 88.13 29.8281 88.3058 29.6523C88.4815 29.4766 88.6939 29.3887 88.943 29.3887ZM99.9096 24.6865L99.0966 25.1919C98.3935 24.2593 97.434 23.793 96.2182 23.793C95.2465 23.793 94.4384 24.1055 93.7938 24.7305C93.1542 25.3555 92.8344 26.1147 92.8344 27.0083C92.8344 27.5894 92.9809 28.1362 93.2738 28.6489C93.5717 29.1616 93.977 29.5596 94.4896 29.8428C95.0072 30.126 95.5858 30.2676 96.2255 30.2676C97.3974 30.2676 98.3544 29.8013 99.0966 28.8687L99.9096 29.4033C99.5287 29.9746 99.016 30.4189 98.3715 30.7363C97.7318 31.0488 97.0019 31.2051 96.1815 31.2051C94.9218 31.2051 93.8769 30.8047 93.0468 30.0039C92.2167 29.2031 91.8017 28.229 91.8017 27.0815C91.8017 26.3101 91.9945 25.5947 92.3803 24.9355C92.7709 24.2715 93.3056 23.7539 93.9843 23.3828C94.663 23.0117 95.4223 22.8262 96.2621 22.8262C96.7895 22.8262 97.2973 22.9067 97.7855 23.0679C98.2787 23.229 98.6962 23.439 99.038 23.6978C99.3798 23.9565 99.6703 24.2861 99.9096 24.6865ZM105.859 22.8262C107.085 22.8262 108.1 23.2705 108.906 24.1592C109.638 24.9697 110.005 25.9292 110.005 27.0376C110.005 28.1509 109.616 29.125 108.84 29.96C108.069 30.79 107.075 31.2051 105.859 31.2051C104.638 31.2051 103.64 30.79 102.863 29.96C102.092 29.125 101.706 28.1509 101.706 27.0376C101.706 25.9341 102.072 24.9771 102.805 24.1665C103.611 23.2729 104.629 22.8262 105.859 22.8262ZM105.859 23.8296C105.009 23.8296 104.279 24.1445 103.669 24.7744C103.059 25.4043 102.754 26.166 102.754 27.0596C102.754 27.6357 102.893 28.1729 103.171 28.6709C103.449 29.1689 103.825 29.5547 104.299 29.8281C104.773 30.0967 105.293 30.231 105.859 30.231C106.425 30.231 106.946 30.0967 107.419 29.8281C107.893 29.5547 108.269 29.1689 108.547 28.6709C108.825 28.1729 108.965 27.6357 108.965 27.0596C108.965 26.166 108.657 25.4043 108.042 24.7744C107.431 24.1445 106.704 23.8296 105.859 23.8296ZM112.109 23.0312H113.127V24.4082C113.483 23.9004 113.85 23.5293 114.226 23.2949C114.743 22.9824 115.288 22.8262 115.859 22.8262C116.245 22.8262 116.611 22.9019 116.958 23.0532C117.304 23.2046 117.587 23.4072 117.807 23.6611C118.027 23.9102 118.217 24.269 118.378 24.7378C118.72 24.1128 119.147 23.6392 119.66 23.3169C120.173 22.9897 120.725 22.8262 121.315 22.8262C121.867 22.8262 122.353 22.9653 122.773 23.2437C123.198 23.522 123.513 23.9102 123.718 24.4082C123.923 24.9062 124.025 25.6533 124.025 26.6494V31H122.978V26.6494C122.978 25.7949 122.917 25.209 122.795 24.8916C122.673 24.5693 122.463 24.3105 122.165 24.1152C121.872 23.9199 121.521 23.8223 121.11 23.8223C120.612 23.8223 120.156 23.9688 119.741 24.2617C119.331 24.5547 119.03 24.9453 118.84 25.4336C118.649 25.9219 118.554 26.7373 118.554 27.8799V31H117.536V26.9204C117.536 25.9585 117.475 25.3066 117.353 24.9648C117.236 24.6182 117.028 24.3423 116.73 24.1372C116.433 23.9272 116.079 23.8223 115.668 23.8223C115.195 23.8223 114.75 23.9663 114.335 24.2544C113.925 24.5376 113.62 24.9209 113.42 25.4043C113.225 25.8877 113.127 26.6274 113.127 27.6235V31H112.109V23.0312Z" fill="white"/>
</svg>
