<svg width="40" height="40" viewBox="0 0 40 40" fill="none" xmlns="http://www.w3.org/2000/svg">
<path d="M29.5207 26.0833H27.7103L27.0686 25.4646C28.5008 23.8008 29.5475 21.8409 30.1339 19.7254C30.7202 17.6098 30.8317 15.3908 30.4603 13.2271C29.3832 6.85625 24.0665 1.76875 17.6499 0.989587C15.394 0.704196 13.1027 0.938647 10.9514 1.675C8.80007 2.41135 6.84569 3.63009 5.23783 5.23795C3.62997 6.84581 2.41123 8.80019 1.67488 10.9515C0.938525 13.1029 0.704074 15.3941 0.989465 17.65C1.76863 24.0667 6.85613 29.3833 13.227 30.4604C15.3906 30.8318 17.6097 30.7203 19.7252 30.134C21.8408 29.5476 23.8006 28.5009 25.4645 27.0688L26.0832 27.7104V29.5208L35.8228 39.2604C36.7624 40.2 38.2978 40.2 39.2374 39.2604C40.177 38.3208 40.177 36.7854 39.2374 35.8458L29.5207 26.0833ZM15.7707 26.0833C10.0645 26.0833 5.45822 21.4771 5.45822 15.7708C5.45822 10.0646 10.0645 5.45834 15.7707 5.45834C21.477 5.45834 26.0832 10.0646 26.0832 15.7708C26.0832 21.4771 21.477 26.0833 15.7707 26.0833Z" fill="#758BFD"/>
</svg>
